<svg xmlns="http://www.w3.org/2000/svg" viewBox="0 0 32 32">
  <defs>
    <clipPath id="clip">
      <path d="M32 28a4 4 0 01-4 4H4a4 4 0 01-4-4V4a4 4 0 014-4h8l4 4H28a4 4 0 014 4z" />
    </clipPath>
  </defs>
  <g clip-path="url(#clip)">
    <path fill="#50c800" d="M0 0H32V32H0Z" />
    <path fill="#00a0ff" d="M8 0C8 6 4 11 0 13V0Z" />
    <path fill="none" stroke="#00a0ff" stroke-width="4" d="M26 32c0-2-2-4 0-5s3 1 6 1" />
    <path fill="none" stroke="#ffc800" stroke-width="4" d="M0 24c3 0 4 1 6 2s6 3 6 6" />
    <path fill="none" stroke="#ffc800" stroke-width="4" d="M12 32c3-1 5-3 7-6" />
    <path fill="none" stroke="#ffc800" stroke-width="4" d="M21-3C17 7 24 8 28 12" />
    <path fill="none" stroke="#ff6000" stroke-width="4" d="M14-1c1 6-2 9 0 15" />
    <path fill="none" stroke="#ff6000" stroke-width="4" d="M17 21c1 6 6 8 6 11" />
    <path fill="none" stroke="#ff6000" stroke-width="4" d="M24 15c3-3 6-5 8-5" />
    <path fill="none" stroke="#ff6000" stroke-width="4" d="M0 30c3 0 5-5 10-11" />
    <path fill="#fff" d="M5 18s4-8 11-8 11 8 11 8-4 8-11 8-11-8-11-8z" />
    <path fill="#ffc800" d="M10 18a5 5 0 0012 0 1 1 0 00-12 0" />
    <path fill="#000" d="M12 18a3 3 0 008 0 1 1 0 00-8 0" />
  </g>
</svg>